<?xml version="1.0" encoding="UTF-8" standalone="no"?>
<!-- Generator: Adobe Illustrator 27.0.1, SVG Export Plug-In . SVG Version: 6.00 Build 0)  -->

<svg
   version="1.1"
   x="0px"
   y="0px"
   viewBox="0 0 512 512"
   style="enable-background:new 0 0 512 512;"
   xml:space="preserve"
   id="svg11"
   xmlns="http://www.w3.org/2000/svg"
   xmlns:svg="http://www.w3.org/2000/svg"
   xmlns:i="&amp;ns_ai;"><defs
   id="defs11" />
<style
   type="text/css"
   id="style1">
	.st0{fill:#2C3386;}
	.st1{fill:#D5F110;}
</style>

<i:aipgf
   id="adobe_illustrator_pgf"
   i:pgfEncoding="zstd/base64"
   i:pgfVersion="24">
</i:aipgf>
<path
   style="fill:#000000;stroke-width:0.636816"
   d="m 90.126755,485.7399 c -1.721224,-0.60749 -4.157368,-2.31431 -6.156318,-4.31327 -5.798229,-5.79822 -5.323671,5.19583 -5.323671,-123.33326 0,-62.28071 -0.200694,-113.23765 -0.445987,-113.23765 -0.245292,0 -6.478128,5.97865 -13.850746,13.2859 -14.532792,14.40393 -15.426774,15.01193 -22.001774,14.96355 -12.110634,-0.0891 -20.760932,-12.69367 -16.546381,-24.11015 1.367923,-3.70546 4.097622,-6.51432 90.354732,-92.97512 48.9193,-49.03483 98.10397,-98.385179 109.29926,-109.667452 16.05821,-16.182974 20.99839,-20.795569 23.40256,-21.850747 4.06083,-1.782271 10.17967,-1.804632 14.14251,-0.05168 2.26651,1.002591 13.64628,11.918108 51.65971,49.552239 26.81407,26.54652 49.01466,48.36192 49.33466,48.47867 0.34137,0.12455 0.58438,-6.45469 0.58803,-15.9204 0.006,-15.554877 0.0594,-16.246873 1.49113,-19.321382 1.71194,-3.67625 5.17242,-6.960393 9.22128,-8.751397 3.5006,-1.548483 10.02923,-1.326137 13.73726,0.467848 3.35205,1.621757 6.6234,5.007025 8.26197,8.549668 1.31691,2.847191 1.35636,3.801619 1.52893,36.992243 l 0.17714,34.06965 43.18614,43.30349 c 29.35011,29.42985 43.56651,44.11958 44.37338,45.85074 0.67535,1.44897 1.29502,4.49138 1.43719,7.05621 0.31734,5.72481 -1.34619,9.93585 -5.40188,13.67426 -3.70042,3.41092 -6.67243,4.62138 -11.3521,4.62358 -6.47689,0.003 -8.63837,-1.46562 -22.97041,-15.60774 -7.02975,-6.93659 -12.97602,-12.61198 -13.21393,-12.61198 -0.23792,0 -0.44515,51.36717 -0.46052,114.14926 -0.0227,92.54292 -0.18615,114.59217 -0.86367,116.48927 -1.38815,3.88683 -4.57733,7.3001 -8.78574,9.40307 l -3.8992,1.94845 -164.03759,-0.0503 C 109.27907,486.75022 92.692021,486.6453 90.126755,485.7399 Z M 398.96517,330.03091 V 208.87774 L 327.48364,137.39409 256.00212,65.910443 184.51847,137.39197 113.03483,208.8735 V 330.02879 451.18408 H 256 398.96517 Z"
   id="path11" /></svg>
